<?xml version="1.0" encoding="UTF-8"?>
<svg width="30" height="30" enable-background="new 0 0 80 80" version="1.1" viewBox="0 0 30 30" xml:space="preserve" xmlns="http://www.w3.org/2000/svg" xmlns:cc="http://creativecommons.org/ns#" xmlns:dc="http://purl.org/dc/elements/1.1/" xmlns:rdf="http://www.w3.org/1999/02/22-rdf-syntax-ns#"><metadata><rdf:RDF><cc:Work rdf:about=""><dc:format>image/svg+xml</dc:format><dc:type rdf:resource="http://purl.org/dc/dcmitype/StillImage"/><dc:title/></cc:Work></rdf:RDF></metadata><g transform="matrix(1.1099 0 0 1.1099 3.9007 -3.298)"><g transform="translate(-30,-23)"><rect x="30" y="26" width="4" height="27"/></g><g transform="translate(-30,-23)"><path d="m41 41h-7v-4h7c1.93 0 3.5-1.57 3.5-3.5s-1.57-3.5-3.5-3.5h-7v-4h7c4.136 0 7.5 3.364 7.5 7.5s-3.364 7.5-7.5 7.5z"/></g><g transform="translate(-30,-23)"><path d="m41.84 53h-7.84v-4h7.84c2.294 0 4.16-1.794 4.16-4s-1.866-4-4.16-4h-7.84v-4h7.84c4.5 0 8.16 3.589 8.16 8s-3.661 8-8.16 8z"/></g></g></svg>
